<?xml version="1.0" encoding="utf-8"?>
<!-- Generator: Adobe Illustrator 21.1.0, SVG Export Plug-In . SVG Version: 6.00 Build 0)  -->
<svg version="1.1" id="Layer_1" xmlns="http://www.w3.org/2000/svg" xmlns:xlink="http://www.w3.org/1999/xlink" x="0px" y="0px"
	 viewBox="0 0 368 98" style="enable-background:new 0 0 368 98;" xml:space="preserve">
<style type="text/css">
	.st0{fill:#606060;}
	.st1{fill:#FFFFFF;}
	.st2{fill:#30793B;}
</style>
<g>
	<path d="M25.2,26.7l0.3,0.5 M352.6,80.5c2.5,0,4.4-2,4.4-4.4c0-2.2-1.9-4.3-4.4-4.3c-2.6,0-4.6,2.1-4.6,4.3
		C348,78.5,350,80.5,352.6,80.5 M333.4,80.6c4.4,0,7.8-3.1,11.1-6.5l-0.4-0.3c-1.9,1.6-4.1,3.3-7.3,3.3c-3.3,0-5.5-1.8-5.4-5.4
		l0.6-25h10.1l1.2-3H332l0.1-7.5l-0.8-0.1l-11.7,10l-0.3,0.7l6.6,0.1l-0.5,25.5C325.4,78.8,329.2,80.6,333.4,80.6 M278.4,79.5h16.9
		l-0.3-0.5l-1.2-0.1c-3.7-0.3-4.2-0.4-4.2-1.1V51.3c2.7-2.5,6.1-4.4,10.1-4.4c4.9,0,7.4,2.4,7.4,7.4v23.3c0,0.7-0.5,1.1-3.5,1.3
		l-1.5,0.1l-0.3,0.5h16.8l-0.3-0.5l-1.2-0.1c-4.2-0.3-4.2-0.7-4.2-1.2V53.3c0-3.6-0.8-6.3-2.7-8.2c-1.5-1.6-3.7-2.4-6.3-2.4
		c-6,0-11.1,4.8-14.3,7.6l-0.3-0.2l0.3-7.3l-11.3,3l-0.1,0.3l1.9,0.3c2.9,0.4,3.5,1.4,3.5,6.7v24.5c0,1-0.9,1.1-3.5,1.3l-1.5,0.1
		L278.4,79.5z M260,79.5h16.9l-0.3-0.5l-1.2-0.1c-3.7-0.3-4.2-0.4-4.2-1.1v-35l-11.2,3l-0.1,0.3l1.9,0.3c2.9,0.4,3.5,1.4,3.5,6.6
		v24.6c0,1-0.9,1.1-3.5,1.3l-1.5,0.1L260,79.5z M230.8,79.5H249l-0.3-0.5l-2.7-0.1c-3.7-0.1-4-0.4-4-1.1V59.3
		c2.4-8.6,4.1-12.4,7.8-13.2c0.2,3.5,2.3,5.2,4.4,5.2c2.5,0,4.1-2.2,4.1-4.2c0-2.2-2-4.3-5-4.3c-5.4,0-9,5.5-11.3,14.2h-0.1l0.3-14
		l-11.3,3l-0.1,0.3l1.9,0.3c2.9,0.4,3.5,1.4,3.5,6.7v24.5c0,1-0.9,1.1-3.5,1.3l-1.5,0.1L230.8,79.5z M209.4,53
		c-3.5,0-5.6-0.4-7.3-0.9V27.6l6-0.1c10.5-0.2,14.2,4.6,14.2,12.8C222.2,48.5,217.5,53,209.4,53 M186.7,79.5h24.6L211,79l-4.1-0.3
		c-4.4-0.3-4.9-0.6-4.9-1.2V53.4c1.8,0.3,4.7,0.6,7.3,0.6c11.8,0,20-6,20-14.6c0-7.9-6.3-12.6-19.1-12.6h-23.5l0.3,0.5l3.3,0.3
		c4.4,0.3,4.9,0.6,4.9,1.2v48.7c0,0.5-1.1,1.1-4.1,1.4 M25.4,79l-0.3,0.5"/>
	<polyline class="st2" points="0,22.5 188.8,0.5 188.8,96.8 18.8,85.6 0,22.5 	"/>
	<path class="st1" d="M166.1,76.7c-7.3,0-11.9-7.3-11.9-16c0-9.6,4.1-16.7,10.9-16.7c4.6,0,8.9,3.4,10.7,7.7v20.1
		C173.4,74.4,170.5,76.7,166.1,76.7 M175.9,80.8l11.1-2.4l0.1-0.4l-3.3-0.5c-1.8-0.3-2.1-0.8-2.1-2.7V22.5l-12,2.8l-0.1,0.4l2.8,0.3
		c2.9,0.3,3.4,1.4,3.4,4.7v14.4c0,0.1-0.1,0-0.1,0c-2.7-1.4-5.5-2.2-9.5-2.2c-9,0-18.8,7.2-18.8,19.8c0,10.5,6.6,17.7,15,17.7
		c5.5,0,9.6-3.3,13.2-7.4l0.2,0.1L175.9,80.8z M125.5,79.8c-2.9,0-5.3-1.1-7.2-3c-3.3-3.2-4.8-9.4-4.8-16.3c0-9,4.5-17.4,11.7-17.4
		c3,0,5.4,1.4,7.3,3.1c3.2,3.2,4.6,9.3,4.6,15.8C137.2,71.6,132.5,79.8,125.5,79.8 M125.5,80.5c10.6,0,18.8-8.4,18.8-19.2
		c0-10.6-8.1-18.8-18.8-18.8s-18.9,8.6-18.9,19.2C106.5,72.3,114.6,80.5,125.5,80.5 M84.6,79.8c-2.9,0-5.3-1.1-7.2-3
		c-3.3-3.2-4.8-9.4-4.8-16.3c0-9,4.5-17.4,11.7-17.4c3,0,5.4,1.4,7.3,3.1c3.2,3.2,4.6,9.3,4.6,15.8C96.2,71.6,91.5,79.8,84.6,79.8
		 M84.5,80.5c10.6,0,18.8-8.4,18.8-19.2c0-10.6-8.1-18.8-18.8-18.8s-18.9,8.6-18.9,19.2C65.6,72.3,73.7,80.5,84.5,80.5 M25.9,79.4
		h23.6l-0.3-0.6L45,78.6c-4.4-0.3-4.9-0.6-4.9-1.2V52.7l5.4,0.2c8.4,0.3,9.9,0.8,10.3,6.9l0.1,1.1l0.5,0.1l1.7-17l-0.5-0.1L57.2,45
		c-1.7,5.5-3.4,6.5-11.1,6.8h-6V27.4h10.3c10.4,0,12.8,5.1,15.7,13.6l0.4,1.1l0.5-0.1l-1.7-15.4H26l0.3,0.5l2.4,0.3
		c4.4,0.3,4.7,0.6,4.7,1.2v48.7c0,0.5-0.9,1.1-3.9,1.4l-3.4,0.3L25.9,79.4z"/>
	<path class="st2" d="M282.1,23.9c0-0.1,0-0.1,0-0.2c0-0.1,0-0.1,0-0.1l-0.1-0.9l-0.8-0.1c0,0-0.9-0.1-2.2-0.1
		c-2.5,0-7.4,0.5-11.1,3.8c-3.2,2.8-1.7,7-0.5,8.8l0.2,0.2c0,0,0,0,0,0c-0.4,0.8-0.8,1.7-1.2,2.6c0,0.2,2.1,0.3,3.1,0.5
		c0.1-0.7,0.2-1.3,0.4-1.9c0.6,0.2,1.2,0.3,2,0.3c1.6,0,3.1-0.5,4.6-1.6C282.1,30.9,282.2,25.3,282.1,23.9z M269.3,28
		c2.5-2.2,5.6-2.9,7.9-3.1c-2.9,1.9-6,4.5-8.4,8.3C268.2,32,267.4,29.6,269.3,28z M275,33.3c-1,0.8-2.1,1.2-3.2,1.2
		c-0.5,0-0.9-0.1-1.3-0.2c1.7-3.8,4.8-6.4,9.3-9C279.7,27.2,278.8,30.6,275,33.3z"/>
	<path d="M359.2,90.3c0.4-0.7,0.9-1.2,1.6-1.6c0.7-0.4,1.4-0.6,2.2-0.6c0.8,0,1.5,0.2,2.2,0.6c0.7,0.4,1.2,0.9,1.6,1.6
		c0.4,0.7,0.6,1.4,0.6,2.2c0,0.8-0.2,1.5-0.6,2.2c-0.4,0.7-0.9,1.2-1.6,1.6c-0.7,0.4-1.4,0.6-2.2,0.6c-0.8,0-1.5-0.2-2.2-0.6
		c-0.7-0.4-1.2-0.9-1.6-1.6c-0.4-0.7-0.6-1.4-0.6-2.2C358.6,91.7,358.8,91,359.2,90.3 M358.6,95c0.4,0.8,1,1.4,1.8,1.8
		c0.8,0.5,1.6,0.7,2.6,0.7c0.9,0,1.8-0.2,2.6-0.7c0.8-0.5,1.4-1.1,1.8-1.9c0.4-0.8,0.6-1.6,0.6-2.5c0-0.9-0.2-1.7-0.7-2.5
		c-0.5-0.8-1.1-1.4-1.8-1.8s-1.6-0.7-2.5-0.7c-0.9,0-1.7,0.2-2.5,0.7c-0.8,0.5-1.4,1.1-1.8,1.8c-0.4,0.8-0.7,1.6-0.7,2.5
		C357.9,93.4,358.2,94.2,358.6,95 M364.5,90c-0.3-0.3-0.9-0.4-1.6-0.4h-1.7v6h1v-2.4h0.9l1.4,2.4h1.1l-1.6-2.6
		c0.3-0.1,0.6-0.3,0.8-0.6c0.2-0.3,0.3-0.6,0.3-0.9C365,90.7,364.8,90.3,364.5,90 M362.1,90.4h0.7c0.4,0,0.7,0.1,0.9,0.2
		c0.2,0.1,0.3,0.4,0.3,0.7c0,0.3-0.1,0.5-0.3,0.7s-0.5,0.3-0.9,0.3h-0.7V90.4z"/>
</g>
</svg>
